<svg width="194" height="46" viewBox="0 0 194 46" fill="none" xmlns="http://www.w3.org/2000/svg">
<g clip-path="url(#clip0_932_690)">
<path d="M0.00195312 1.9518C6.31595 1.9518 12.6296 1.9498 18.943 1.9458C19.196 1.9458 19.261 2.0058 19.257 2.2588C19.243 3.4348 19.243 4.6108 19.257 5.7868C19.257 6.0308 19.208 6.1078 18.945 6.1068C14.558 6.0978 10.171 6.1068 5.78295 6.0948C5.54295 6.0948 5.48295 6.1508 5.48295 6.3948C5.49162 9.69747 5.49162 13.0005 5.48295 16.3038C5.48295 16.5308 5.54195 16.5958 5.77195 16.5958C10.026 16.5891 14.2796 16.5891 18.533 16.5958C18.933 16.5958 18.867 16.5758 18.867 16.9298C18.867 18.0888 18.86 19.2488 18.874 20.4078C18.874 20.6488 18.798 20.6908 18.58 20.6898C14.326 20.6838 10.0723 20.6838 5.81895 20.6898C5.48695 20.6898 5.48695 20.6898 5.48695 21.0298C5.48695 25.9091 5.48695 30.7885 5.48695 35.6678C5.48695 36.0568 5.52095 36.0058 5.15795 36.0058C3.43995 36.0058 1.72195 36.0035 0.00395203 35.9988L0.00195312 1.9518Z" fill="white"/>
<path d="M112.876 45.2502C112.84 45.1098 112.834 44.9635 112.857 44.8205C112.88 44.6775 112.933 44.5408 113.012 44.4192C114.591 41.1352 116.167 37.8499 117.74 34.5632C117.772 34.5074 117.789 34.4441 117.789 34.3797C117.789 34.3153 117.772 34.252 117.74 34.1962C115.182 28.9556 112.627 23.7132 110.074 18.4692C109.32 16.9212 108.567 15.3729 107.814 13.8242L107.728 13.6452C107.808 13.6109 107.896 13.6008 107.981 13.6162C109.725 13.6162 111.468 13.6162 113.211 13.6102C113.291 13.6 113.371 13.6179 113.439 13.6608C113.507 13.7037 113.557 13.769 113.582 13.8452C115.876 18.7599 118.176 23.6726 120.482 28.5832C120.52 28.6642 120.56 28.7452 120.614 28.8562C121.044 27.8882 121.459 26.9562 121.873 26.0192C123.673 21.9526 125.473 17.8832 127.273 13.8112C127.327 13.6902 127.373 13.6112 127.534 13.6112C129.144 13.6192 130.754 13.6162 132.364 13.6172C132.405 13.6172 132.446 13.6232 132.53 13.6292L117.93 45.2512L112.876 45.2502Z" fill="#0261FF"/>
<path d="M70.3779 0C70.3779 0.117 70.3719 0.234 70.3719 0.35C70.3719 12.1187 70.3719 23.8873 70.3719 35.656C70.3719 36.042 70.4259 35.996 70.0229 35.997C68.4969 35.997 66.9699 35.997 65.4439 36.004C65.2049 36.004 65.1439 35.949 65.1439 35.704C65.1512 29.9987 65.1532 24.2937 65.1499 18.589C65.1499 12.509 65.1499 6.42867 65.1499 0.348C65.1499 0.232 65.1359 0.117 65.1289 0.000999928L70.3779 0Z" fill="white"/>
<path d="M165.584 0C165.556 0.121904 165.549 0.247708 165.563 0.372C165.563 12.0993 165.563 23.8263 165.563 35.553C165.559 35.6363 165.559 35.7197 165.563 35.803C165.579 35.958 165.515 36.003 165.363 36.003C164.879 35.995 164.396 36.003 163.912 36.003C162.827 36.003 161.743 36.003 160.659 36.003C160.284 36.003 160.335 36.042 160.335 35.662C160.335 24.662 160.335 13.662 160.335 2.662C160.335 1.778 160.335 0.894 160.33 0.00999975L165.584 0Z" fill="#0261FF"/>
<path d="M57.9641 0C57.9641 11.888 57.9641 23.776 57.9641 35.664C57.9641 36.044 58.0211 35.996 57.6361 35.997C56.0931 35.997 54.5491 35.997 53.0061 36.003C52.7951 36.003 52.7461 35.944 52.7471 35.739C52.7518 23.8923 52.7518 12.046 52.7471 0.2C52.7471 0.133 52.7471 0.067 52.7541 0H57.9641Z" fill="white"/>
<path d="M185.101 25.7779C182.356 25.7779 179.612 25.7779 176.868 25.7719C176.636 25.7719 176.568 25.8309 176.592 26.0599C176.641 27.3699 177.078 28.6358 177.846 29.6977C178.615 30.7596 179.681 31.5698 180.91 32.0259C182.268 32.576 183.738 32.79 185.197 32.6499C187.578 32.4792 189.863 31.6377 191.786 30.2229C191.904 30.1459 192.047 30.1169 192.186 30.1419C192.348 30.1539 192.286 30.2919 192.286 30.3769C192.286 31.4199 192.286 32.4619 192.286 33.5049C192.286 33.9139 192.276 34.3229 192.286 34.7309C192.298 34.8073 192.282 34.8853 192.241 34.9509C192.2 35.0164 192.137 35.0651 192.063 35.0879C190.899 35.6053 189.677 35.9826 188.424 36.2119C186.793 36.5228 185.132 36.6413 183.474 36.5649C181.174 36.4971 178.927 35.8568 176.937 34.7019C175.477 33.8908 174.219 32.7612 173.256 31.3969C172.293 30.0327 171.65 28.4689 171.375 26.8219C171.01 25.0369 171.073 23.1908 171.56 21.4351C172.047 19.6793 172.943 18.0641 174.175 16.7219C175.947 14.7462 178.375 13.4809 181.01 13.1609C183.161 12.8137 185.367 13.0635 187.386 13.8829C188.716 14.4319 189.909 15.2671 190.88 16.3291C191.851 17.3912 192.576 18.654 193.004 20.0279C193.596 21.8215 193.805 23.7194 193.618 25.5989C193.601 25.8189 193.48 25.7809 193.352 25.7809L185.101 25.7779ZM182.462 22.6219C184.339 22.6219 186.215 22.6219 188.092 22.6219C188.273 22.6219 188.342 22.5869 188.325 22.3849C188.304 22.0526 188.264 21.7218 188.206 21.3939C188.098 20.6873 187.851 20.0092 187.479 19.3988C187.108 18.7883 186.618 18.2578 186.04 17.8379C185.411 17.402 184.702 17.0957 183.953 16.9369C183.205 16.7781 182.432 16.7699 181.681 16.9129C180.343 17.099 179.11 17.7367 178.185 18.7204C177.26 19.7041 176.699 20.9745 176.595 22.3209C176.571 22.5669 176.636 22.6259 176.882 22.6209C178.742 22.6119 180.602 22.6219 182.462 22.6219Z" fill="#0261FF"/>
<path d="M41.3018 32.8639C40.3406 33.7692 39.2599 34.5387 38.0898 35.1509C36.2852 36.1433 34.2486 36.6369 32.1898 36.5809C30.0245 36.5798 27.9401 35.7579 26.3568 34.2809C25.292 33.2351 24.5541 31.9023 24.2328 30.4449C24.039 29.6167 23.9443 28.7684 23.9508 27.9179C23.9508 23.2552 23.9488 18.5922 23.9448 13.9289C23.9448 13.6799 23.9998 13.6109 24.2568 13.6139C25.8082 13.6272 27.3595 13.6272 28.9108 13.6139C29.1368 13.6139 29.1828 13.6749 29.1828 13.8909C29.1762 18.4535 29.1762 23.0162 29.1828 27.5789C29.1422 28.7384 29.4946 29.8777 30.1828 30.8118C30.5418 31.2745 30.9896 31.6608 31.5 31.9479C32.0104 32.2351 32.573 32.4173 33.1548 32.4839C34.4252 32.6617 35.719 32.5593 36.9456 32.1839C38.1721 31.8085 39.3017 31.1692 40.2548 30.3109C40.3706 30.2217 40.4623 30.105 40.5215 29.9714C40.5807 29.8378 40.6055 29.6915 40.5938 29.5458C40.5828 24.3408 40.5878 19.1359 40.5808 13.9309C40.5808 13.6919 40.6208 13.6099 40.8868 13.6119C42.4468 13.6269 44.0068 13.6229 45.5668 13.6119C45.7478 13.6119 45.8048 13.6489 45.8048 13.8419C45.7995 21.1492 45.7995 28.4562 45.8048 35.7629C45.8048 35.9439 45.7668 36.0039 45.5738 36.0029C44.2305 35.9942 42.8875 35.9942 41.5448 36.0029C41.3448 36.0029 41.2958 35.9439 41.2978 35.7499C41.3068 34.8079 41.3018 33.8639 41.3018 32.8639Z" fill="white"/>
<path d="M73.7581 23.6341C73.6086 23.1996 73.5044 22.7509 73.4471 22.2951C73.3155 21.438 73.2487 20.5722 73.2472 19.7051C73.2354 16.1609 74.3454 12.7039 76.4182 9.82906C77.7483 7.93886 79.4385 6.32984 81.3919 5.0943C83.3453 3.85875 85.5233 3.02099 87.8011 2.62906C91.4464 1.89221 95.2289 2.26634 98.6591 3.70306C99.3871 4.01301 100.091 4.37598 100.766 4.78906C100.797 4.81523 100.833 4.83462 100.871 4.84596C100.91 4.8573 100.951 4.86033 100.991 4.85485C101.031 4.84938 101.069 4.83551 101.103 4.81418C101.137 4.79285 101.167 4.76452 101.189 4.73106C101.626 4.28406 102.077 3.85006 102.525 3.41306C102.571 3.36806 102.638 3.29606 102.681 3.30506C102.761 3.32106 102.75 3.42206 102.765 3.49206C103.414 6.53539 104.063 9.57873 104.712 12.6221C104.764 12.8661 104.812 13.1111 104.862 13.3561C104.898 13.5391 104.828 13.5941 104.644 13.5561C103.335 13.2701 102.026 12.9871 100.716 12.7071C98.7075 12.2744 96.6988 11.8411 94.6902 11.4071C94.6242 11.3931 94.5232 11.4071 94.5052 11.3171C94.4902 11.2461 94.5722 11.2081 94.6182 11.1631C95.1182 10.6711 95.6112 10.1741 96.1182 9.69506C96.2752 9.54806 96.2562 9.49506 96.0752 9.41606C95.1955 9.03846 94.273 8.76981 93.3282 8.61606C91.8246 8.40122 90.2951 8.44961 88.8082 8.75906C86.7917 9.07958 84.8397 9.72104 83.0262 10.6591C80.8278 11.7879 78.8956 13.3728 77.3584 15.3077C75.8212 17.2427 74.7145 19.4834 74.1122 21.8801C73.9582 22.4531 73.8741 23.0481 73.7581 23.6341Z" fill="#0261FF"/>
<path d="M80.6371 15.7061C80.4961 16.1551 80.3371 16.5631 80.2301 16.9891C79.7837 18.6372 79.7437 20.3691 80.1137 22.0361C80.4836 23.7031 81.2524 25.2554 82.3541 26.5601C84.1288 28.8261 86.7023 30.3286 89.5481 30.7601C91.243 31.0833 92.9901 31.0035 94.6485 30.5272C96.3069 30.0509 97.83 29.1914 99.0951 28.0181C99.7795 27.4186 100.39 26.7398 100.914 25.9961C101.027 25.8321 101.107 25.8151 101.254 25.9661C102.683 27.4274 104.116 28.8844 105.554 30.3371C105.662 30.4461 105.662 30.5101 105.564 30.6211C102.947 33.7233 99.3783 35.8749 95.4131 36.7421C92.077 37.4479 88.6122 37.238 85.3857 36.1347C82.1593 35.0314 79.2914 33.0758 77.0861 30.4751C76.9828 30.3552 76.907 30.2143 76.8641 30.0621C76.3806 28.3315 76.2079 26.5289 76.3541 24.7381C76.5707 22.0308 77.5606 19.4428 79.2061 17.2821C79.5769 16.778 79.9826 16.3005 80.4201 15.8531C80.4716 15.7787 80.5489 15.7263 80.6371 15.7061Z" fill="#0261FF"/>
<path d="M154.115 32.823C154.115 33.549 154.108 34.274 154.12 35C154.128 35.0724 154.111 35.1455 154.071 35.2062C154.03 35.267 153.97 35.3115 153.9 35.332C152.653 35.87 151.335 36.225 149.986 36.386C148.863 36.5484 147.729 36.6153 146.595 36.586C143.596 36.5166 140.706 35.4458 138.385 33.544C136.606 32.164 135.302 30.2623 134.657 28.105C134.214 26.6181 134.09 25.0542 134.294 23.516C134.498 21.9778 135.024 20.5001 135.84 19.18C136.691 17.699 137.849 16.4169 139.236 15.4196C140.623 14.4222 142.207 13.7327 143.882 13.397C147.172 12.6258 150.626 12.968 153.701 14.37C154.217 14.602 154.713 14.876 155.201 15.158C155.333 15.234 155.378 15.282 155.283 15.434C154.531 16.6527 153.785 17.8757 153.046 19.103C152.953 19.258 152.89 19.241 152.765 19.147C151.766 18.3369 150.618 17.7287 149.387 17.356C148.302 17.0123 147.154 16.9159 146.028 17.0737C144.901 17.2315 143.824 17.6396 142.875 18.268C142.063 18.8221 141.372 19.5357 140.845 20.3655C140.318 21.1952 139.966 22.1236 139.809 23.094C139.427 24.7464 139.556 26.4756 140.179 28.053C140.624 29.1999 141.365 30.2086 142.326 30.9763C143.287 31.7441 144.434 32.2436 145.651 32.424C147.026 32.6699 148.436 32.628 149.794 32.3009C151.152 31.9739 152.427 31.3689 153.539 30.524C153.58 30.495 153.616 30.458 153.659 30.433C153.914 30.289 154.112 30.394 154.112 30.673C154.115 31.389 154.116 32.1057 154.115 32.823Z" fill="#0261FF"/>
</g>
<defs>
<clipPath id="clip0_932_690">
<rect width="193.68" height="45.25" fill="white"/>
</clipPath>
</defs>
</svg>
