<svg xmlns="http://www.w3.org/2000/svg" width="193.68" height="45.25" viewBox="0 0 193.68 45.25"><defs><style>.a{fill:#fff;}.b{fill:#ffcd00;}</style></defs><g transform="translate(-670 -19)"><g transform="translate(670 19)"><path class="a" d="M41.7,12.17q9.471,0,18.941-.006c.253,0,.318.06.314.313q-.021,1.764,0,3.528c0,.244-.049.321-.312.32-4.387-.009-8.774,0-13.162-.012-.24,0-.3.056-.3.3q.013,4.954,0,9.909c0,.227.059.292.289.292q6.381-.01,12.761,0c.4,0,.334-.02.334.334,0,1.159-.007,2.319.007,3.478,0,.241-.076.283-.294.282q-6.381-.009-12.761,0c-.332,0-.332,0-.332.34q0,7.319,0,14.638c0,.389.034.338-.329.338q-2.577,0-5.154-.007Z" transform="translate(-41.698 -10.218)"/><path class="b" d="M491.922,91.994a1.049,1.049,0,0,1,.136-.831q2.369-4.926,4.728-9.856a.368.368,0,0,0,0-.367q-3.837-7.861-7.666-15.727-1.131-2.322-2.26-4.645l-.086-.179a.441.441,0,0,1,.253-.029c1.744,0,3.487,0,5.23-.006a.344.344,0,0,1,.371.235q3.441,7.372,6.9,14.738c.038.081.078.162.132.273.43-.968.845-1.9,1.259-2.837q2.7-6.1,5.4-12.208c.054-.121.1-.2.261-.2,1.61.008,3.22.005,4.83.006.041,0,.082.006.166.012l-14.6,31.622Z" transform="translate(-379.046 -46.744)"/><path class="a" d="M316.009,4.122c0,.117-.006.234-.006.35q0,17.653,0,35.306c0,.386.054.34-.349.341-1.526,0-3.053,0-4.579.007-.239,0-.3-.055-.3-.3q.011-8.558.006-17.115,0-9.12,0-18.241c0-.116-.014-.231-.021-.347Z" transform="translate(-245.631 -4.122)"/><path class="b" d="M709.355,4.122a1.1,1.1,0,0,0-.021.372q0,17.591,0,35.181a2.339,2.339,0,0,0,0,.25c.016.155-.048.2-.2.2-.484-.008-.967,0-1.451,0q-1.627,0-3.253,0c-.375,0-.324.039-.324-.341q0-16.5,0-33c0-.884,0-1.768-.005-2.652Z" transform="translate(-543.771 -4.122)"/><path class="a" d="M264.839,4.122q0,17.832,0,35.664c0,.38.057.332-.328.333-1.543,0-3.087,0-4.63.006-.211,0-.26-.059-.259-.264q.007-17.77,0-35.539c0-.067,0-.133.007-.2Z" transform="translate(-206.875 -4.122)"/><path class="b" d="M762.826,70.656c-2.745,0-5.489,0-8.233-.006-.232,0-.3.059-.276.288a6.629,6.629,0,0,0,4.318,5.966,9.1,9.1,0,0,0,4.287.624,12.645,12.645,0,0,0,6.589-2.427.553.553,0,0,1,.4-.081c.162.012.1.15.1.235,0,1.043,0,2.085,0,3.128,0,.409-.01.818,0,1.226a.322.322,0,0,1-.223.357,16.09,16.09,0,0,1-3.639,1.124,21.216,21.216,0,0,1-4.95.353,13.837,13.837,0,0,1-6.537-1.863A11.111,11.111,0,0,1,749.1,71.7a11.521,11.521,0,0,1,2.8-10.1,10.955,10.955,0,0,1,6.835-3.561,11.91,11.91,0,0,1,6.376.722,9.8,9.8,0,0,1,5.618,6.145,13.5,13.5,0,0,1,.614,5.571c-.017.22-.138.182-.266.182ZM760.187,67.5q2.815,0,5.63,0c.181,0,.25-.035.233-.237a8.933,8.933,0,0,0-.119-.991,5.4,5.4,0,0,0-2.166-3.556,5.761,5.761,0,0,0-4.359-.925,5.919,5.919,0,0,0-5.086,5.408c-.024.246.041.305.287.3C756.467,67.49,758.327,67.5,760.187,67.5Z" transform="translate(-577.725 -44.878)"/><path class="a" d="M157.979,79.6a14.465,14.465,0,0,1-3.212,2.287,11.59,11.59,0,0,1-5.9,1.43,8.557,8.557,0,0,1-5.833-2.3,7.7,7.7,0,0,1-2.124-3.836,10.725,10.725,0,0,1-.282-2.527q0-6.994-.006-13.989c0-.249.055-.318.312-.315q2.327.02,4.654,0c.226,0,.272.061.272.277q-.01,6.844,0,13.688a5.147,5.147,0,0,0,1,3.233,4.394,4.394,0,0,0,2.972,1.672,8.789,8.789,0,0,0,7.1-2.173.877.877,0,0,0,.339-.765c-.011-5.205-.006-10.41-.013-15.615,0-.239.04-.321.306-.319,1.56.015,3.12.011,4.68,0,.181,0,.238.037.238.23q-.008,10.961,0,21.921c0,.181-.038.241-.231.24q-2.015-.013-4.029,0c-.2,0-.249-.059-.247-.253C157.984,81.544,157.979,80.6,157.979,79.6Z" transform="translate(-116.677 -46.736)"/><path class="b" d="M344.835,34.854a6.662,6.662,0,0,1-.311-1.339,17.254,17.254,0,0,1-.2-2.59,16.792,16.792,0,0,1,3.171-9.876,17.56,17.56,0,0,1,11.383-7.2,18.578,18.578,0,0,1,10.858,1.074,16.164,16.164,0,0,1,2.107,1.086.286.286,0,0,0,.423-.058c.437-.447.888-.881,1.336-1.318.046-.045.113-.117.156-.108.08.016.069.117.084.187q.973,4.565,1.947,9.13c.052.244.1.489.15.734.036.183-.034.238-.218.2q-1.963-.429-3.928-.849-3.013-.649-6.026-1.3c-.066-.014-.167,0-.185-.09-.015-.071.067-.109.113-.154.5-.492.993-.989,1.5-1.468.157-.147.138-.2-.043-.279a11.747,11.747,0,0,0-2.747-.8,13.094,13.094,0,0,0-4.52.143,19.118,19.118,0,0,0-5.782,1.9A17.375,17.375,0,0,0,345.189,33.1C345.035,33.673,344.951,34.268,344.835,34.854Z" transform="translate(-271.077 -11.22)"/><path class="b" d="M361.283,69c-.141.449-.3.857-.407,1.283A10.557,10.557,0,0,0,363,79.854a11.287,11.287,0,0,0,7.194,4.2,11.007,11.007,0,0,0,9.547-2.742,11.467,11.467,0,0,0,1.819-2.022c.113-.164.193-.181.34-.03q2.143,2.192,4.3,4.371c.108.109.108.173.01.284a18.435,18.435,0,0,1-10.151,6.121,18.9,18.9,0,0,1-18.327-6.267,1.083,1.083,0,0,1-.222-.413A15.192,15.192,0,0,1,357,78.032a14.172,14.172,0,0,1,2.852-7.456,13.425,13.425,0,0,1,1.214-1.429A.363.363,0,0,1,361.283,69Z" transform="translate(-280.646 -53.294)"/><path class="b" d="M616.049,77.637c0,.726-.007,1.451.005,2.177a.309.309,0,0,1-.22.332A14.1,14.1,0,0,1,611.92,81.2a20.066,20.066,0,0,1-3.391.2,13.443,13.443,0,0,1-8.21-3.042,10.8,10.8,0,0,1-3.728-5.439,11,11,0,0,1,1.183-8.925,11.994,11.994,0,0,1,8.042-5.783,15.27,15.27,0,0,1,9.819.973c.516.232,1.012.506,1.5.788.132.076.177.124.082.276q-1.128,1.828-2.237,3.669c-.093.155-.156.138-.281.044a9.934,9.934,0,0,0-3.378-1.791,7.622,7.622,0,0,0-6.512.912,7.238,7.238,0,0,0-3.066,4.826,8.373,8.373,0,0,0,.37,4.959,6.965,6.965,0,0,0,5.472,4.371,10.1,10.1,0,0,0,7.888-1.9c.041-.029.077-.066.12-.091.255-.144.453-.039.453.24Q616.05,76.561,616.049,77.637Z" transform="translate(-461.934 -44.814)"/></g></g></svg>